<svg height="500" viewBox="0 0 132.29166 132.29167" width="500" xmlns="http://www.w3.org/2000/svg"><g stroke="#000" stroke-width="3.539687" transform="translate(0 -164.70831)"><g fill="#ff6b00"><path d="m6.389969 242.99533h119.536931v13.48306h-119.536931z" stroke-linecap="round" stroke-linejoin="round"/><path clip-rule="evenodd" d="m45.373709 175.57811c-1.280023-2.2-.533789-5.02314 1.667425-6.3025l3.750451-2.18109c2.201122-1.27935 5.02105-.53352 6.301109 1.67118l47.769826 84.57977 7.44176 12.79314-11.72358 6.81354-7.441797-12.7937z" fill-rule="evenodd" stroke-linecap="round" stroke-linejoin="round"/><path clip-rule="evenodd" d="m16.73909 272.01508 29.800169-50.96122 5.04962-8.63619c1.28484-2.19996 4.114143-2.94117 6.315283-1.65225l4.095236 2.39353c2.201133 1.28883 2.942739 4.11195 1.653143 6.3119l-5.045751 8.63193-29.80359 50.96562" fill-rule="evenodd"/><path clip-rule="evenodd" d="m10.905596 294.08085 5.8335-22.06577 12.06375 7.05312-16.371559 15.9049c-.29278.28797-.746233.33991-1.100607.13193-.359012-.20768-.528968-.62789-.425068-1.02455" fill-rule="evenodd" stroke-linecap="round" stroke-linejoin="round"/><path clip-rule="evenodd" d="m108.8657 266.71344c-1.90355 1.08109-4.74709 2.76176-6.41448 3.75787-3.136377 1.87423-.71802 7.35998-.005 8.54966 4.05746 6.79347 8.25191 5.83982 11.41192 10.65996 1.72883 2.63427 1.24234 3.80035 1.78546 4.669.20778.3258.89743.63735 1.16663.26444 4.86993-6.73209 3.43398-18.31732-.0946-23.47261-1.64849-2.4124-4.63374-6.25056-7.85039-4.42826" fill-rule="evenodd"/></g><path d="m46.539259 221.05386 12.067533 7.04892" fill="none"/><path d="m91.475193 257.13511 11.723627-6.81296" fill="none"/></g></svg>